# xmcd CD database file
#
# Track frame offsets:
#	150
#	17337
#	50431
#	78453
#	107273
#	126258
#	144253
#	161802
#	180773
#	207977
#
# Disc length: 3205 seconds
#
# Revision: 1
# Processed by: cddbd v1.5.1PL0 Copyright (c) Steve Scherf et al.
# Submitted via: CDex 1.51
#
DISCID=740c830a
DTITLE=Ruby Braff - Little Big Horn
DYEAR=1955
DGENRE=Jazz
TTITLE0=Only A Blues
TTITLE1=I'll Never Be The Same
TTITLE2=In The Shade Of The Old Apple Tree
TTITLE3=Deep River 
TTITLE4=I'm Shooting High
TTITLE5=Between The Devil And The Deep Blue Sea
TTITLE6=The Lonesome Road
TTITLE7='Deed I Do
TTITLE8=Flakey 
TTITLE9=Love Me Or Leave Me
EXTD=YEAR: 1955
EXTT0=
EXTT1=
EXTT2=
EXTT3=
EXTT4=
EXTT5=
EXTT6=
EXTT7=
EXTT8=
EXTT9=
PLAYORDER=
